# xmcd
#
# Track frame offsets:
#	150
#	14482
#	30493
#	41832
#	54894
#	66031
#	85315
#	100423
#	113610
#	134662
#	144224
#	162319
#	179236
#	193064
#	212511
#	226921
#	251416
#	267345
#	280020
#	298038
#
# Disc length: 4113 seconds
#
# Revision: 0
# Processed by: cddbd v1.5.2PL0 Copyright (c) Steve Scherf et al.
# Submitted via: EasyCDDAExtractor 16.0.6.1
#
DISCID=24100f14
DTITLE=Συλλογικός δίσκος - Οι χρυσές φωνές 4
DYEAR=2012
DGENRE=Ποικίλη
TTITLE0=Αλεξάνδρα-Τσιτσάνης Βασίλης - Το καράβι [Βασίλης Τσιτσάνης-Κώστας Βίρβ
TTITLE0=ος]
TTITLE1=Καζαντζίδης Στέλιος - Βραδιάζει [Χρήστος Νικολόπουλος-Σώτια Τσώτου]
TTITLE2=Χωματά Καίτη - Τα δειλινά [Γιώργος Ζαμπέτας-Χαράλαμπος Βασιλειάδης]
TTITLE3=Καζαντζίδης Στέλιος-Μαρινέλλα - Η πρώτη αγάπη σου είμαι εγώ [Γιώργος Μ
TTITLE3=ητσάκης]
TTITLE4=Πουλόπουλος Γιάννης - Δεν σού γύρεψα μαχαίρι [Γιάννης Σπανός-Άκος Δασκ
TTITLE4=αλόπουλος]
TTITLE5=Βενετσάνου Νένα - Συννεφιασμένη Κυριακή [Βασίλης Τσιτσάνης]
TTITLE6=Παπάζογλου Νίκος - Αύγουστος [Νίκος Παπάζογλου]
TTITLE7=Μοσχολιού Βίκυ - Πώς έφυγες [Σταμάτης Κραουνάκης]
TTITLE8=Μητσιάς Μανώλης - Ερωτικό [Θάνος Μικρούτσικος-Άλκης Αλκαίος]
TTITLE9=Τσαλιγοπούλου Ελένη - Να μ' αγαπάς [Γιώργος Ανδρέου]
TTITLE10=Κανά Μελίνα - Γέλα ψυχή μου [Κώστας Παρίσης]
TTITLE11=Γλυκερία - Στου Προφήτη Ηλία [Δήμος Μούτσης-Γιώργος Παπαστεφάνου]
TTITLE12=Κουμιώτη Ρένα - Κόρη του γιαλού [Λίνος Κόκοτος-Αργύρης Βεργόπουλος]
TTITLE13=Βιτάλη Ελένη - Χαραμάδα [Ελένη Βιτάλη]
TTITLE14=Αρλέτα - Ο λύκος [Αρλέτα]
TTITLE15=Μουτσάτσου Αναστασία - Κάθε μιά νύχτα [Νότης Μαυρουδής-Τάσος Σαμαρτζή
TTITLE15=ς]
TTITLE16=Βογιατζής Γιάννης - Έχω απόψε ραντεβού [Γιώργος Μουζάκης-Γιώργος Οικο
TTITLE16=νομίδης]
TTITLE17=Βάνου Τζένη - Σ' αγαπώ, σ' αγαπώ [Κώστας Παπαϊωάννου-Γιάννης Τζουανόπ
TTITLE17=ουλος]
TTITLE18=Γιοβάννα - Χθες το βράδυ ονειρεύτηκα [Κώστας Γιαννίδης-Δημ. Γιαννουκά
TTITLE18=κης]
TTITLE19=Δενάρδου Κλειώ - Αμόρε μου, έρωτά μου[Σπ.Πιπεράκης-Αντ.Πλωμαρίτης/Χρ.
TTITLE19=Πύρπασος]
EXTD=
EXTT0=
EXTT1=
EXTT2=
EXTT3=
EXTT4=
EXTT5=
EXTT6=
EXTT7=
EXTT8=
EXTT9=
EXTT10=
EXTT11=
EXTT12=
EXTT13=
EXTT14=
EXTT15=
EXTT16=
EXTT17=
EXTT18=
EXTT19=
PLAYORDER=
